<?xml version="1.0" encoding="UTF-8"?>
<svg id="Layer_1" data-name="Layer 1" xmlns="http://www.w3.org/2000/svg" viewBox="0 0 449.33 151.33">
  <defs>
    <style>
      .cls-1 {
        fill: #2b70b8;
      }

      .cls-2 {
        fill: #1e407c;
      }
    </style>
  </defs>
  <path class="cls-1" d="M118.51,57.06l-1.85-1.85c-.75-.75-.75-1.95,0-2.7l10.77-10.77c.72-.72.57-1.94-.31-2.45-3.33-1.9-7.28-2.84-11.48-2.42-8.88.88-16.17,7.94-17.26,16.8-1.56,12.63,9.05,23.24,21.68,21.68,8.86-1.09,15.92-8.38,16.8-17.26.42-4.23-.54-8.21-2.47-11.56-.49-.85-1.65-.99-2.34-.3-2.57,2.57-8.24,8.24-10.84,10.84-.75.75-1.95.74-2.7,0Z"/>
  <g>
    <path class="cls-2" d="M372.04,74.75h6.69v-13.28c0-2.36,0-5.28,1.21-6.99,1.21-1.86,3.37-2.46,4.58-2.46,5.63,0,5.63,6.64,5.63,8.95v13.78h6.69v-15.09c0-2.16,0-6.84-2.57-9.91-2.31-2.82-5.99-3.87-8.4-3.87-4.23,0-6.54,2.31-7.65,3.37v-2.41h-6.19v27.92ZM353.28,69.52c-4.23,0-8.2-3.42-8.2-8.7,0-5.83,4.73-8.8,8.2-8.8,4.17,0,8.1,3.77,8.1,8.85,0,4.43-3.22,8.65-8.1,8.65M353.28,75.65c7.75,0,14.79-5.78,14.79-14.94,0-8.55-6.89-14.84-14.79-14.84s-14.89,6.49-14.89,14.94c0,8,6.59,14.84,14.89,14.84M327.73,74.75h6.69v-27.92h-6.69v27.92ZM297.6,74.75h6.69v-13.28c0-2.36,0-5.28,1.21-6.99,1.21-1.86,3.37-2.46,4.58-2.46,5.63,0,5.63,6.64,5.63,8.95v13.78h6.69v-15.09c0-2.16,0-6.84-2.57-9.91-2.31-2.82-5.99-3.87-8.4-3.87-4.23,0-6.54,2.31-7.65,3.37v-2.41h-6.19v27.92ZM286.18,60.71c0,5.18-3.52,8.8-8.15,8.8s-8.3-3.87-8.3-8.6c0-4.17,2.82-8.9,8.3-8.9,3.97,0,8.15,2.92,8.15,8.7M292.52,46.83h-6.14v3.52h-.1c-.2-.4-3.57-4.48-9.26-4.48-7.75,0-13.98,6.19-13.98,14.74,0,9.31,6.39,15.04,13.58,15.04,3.52,0,7.65-1.86,9.76-4.38v3.47h6.14v-27.92ZM237.14,60.76c0-5.38,4.07-8.75,8.25-8.75s8.05,3.62,8.05,8.75c0,5.73-4.58,8.75-8.15,8.75-3.17,0-8.15-2.57-8.15-8.75M230.85,84.05h6.69v-11.97c1.76,1.66,3.87,3.57,8.6,3.57,7.9,0,13.98-6.74,13.98-14.99,0-6.89-4.83-14.79-13.98-14.79-1.31,0-5.73,0-9.05,4.23h-.1v-3.27h-6.14v37.22ZM186.39,74.75h6.89v-27.92h.1l9.56,27.92h5.83l9.51-27.92h.15v27.92h6.89v-37.22h-9.56l-9.81,28.17h-.1l-9.91-28.17h-9.56v37.22ZM141.12,74.75h6.89v-27.92h.1l9.56,27.92h5.83l9.51-27.92h.15v27.92h6.89v-37.22h-9.56l-9.81,28.17h-.1l-9.91-28.17h-9.56v37.22ZM87.39,64.39c-1.66,1.76-4.38,4.68-9.36,4.68-6.59,0-12.37-5.99-12.37-12.98,0-7.44,6.09-12.88,12.12-12.88,4.12,0,7.29,1.86,9.96,4.93h7.85c-3.57-8.15-11.37-11.37-17.55-11.37-10.76,0-19.26,8.95-19.26,19.21s8.65,19.52,19.42,19.52c7.14,0,14.29-4.28,17.2-11.12h-8Z"/>
    <path class="cls-2" d="M385.51,91.53v18.11h3.59v-5.8c0-.38.02-.75.07-1.1.05-.35.15-.67.3-.95.15-.28.37-.5.66-.67.29-.17.66-.25,1.13-.25s.82.1,1.07.29.43.44.55.74c.12.3.19.63.22.99s.04.71.04,1.04v5.7h3.59v-6.42c0-.78-.06-1.51-.17-2.18-.11-.67-.32-1.25-.64-1.75-.31-.49-.75-.88-1.31-1.16-.56-.28-1.29-.42-2.2-.42-.43,0-.83.06-1.2.17-.37.11-.69.26-.96.43-.27.18-.5.37-.69.6s-.33.45-.41.67h-.05v-8.05h-3.59ZM383.33,98h-3.16v-3.45h-3.59v3.45h-2.3v2.87h2.3v5.53c0,.64.11,1.18.32,1.63s.52.81.9,1.09c.38.28.83.48,1.34.61.51.13,1.07.19,1.68.19.41,0,.84-.02,1.27-.07s.85-.14,1.25-.29v-2.99c-.16.14-.4.24-.71.27-.31.04-.56.06-.75.06-.38,0-.69-.05-.92-.16-.23-.1-.4-.25-.51-.44-.11-.19-.18-.42-.22-.68-.03-.26-.05-.55-.05-.87v-3.88h3.16v-2.87ZM368.86,109.64h3.59v-18.11h-3.59v18.11ZM362.89,104.54v.77c0,.37-.08.69-.23.96-.15.27-.36.49-.61.67s-.55.31-.87.41c-.33.1-.67.14-1.02.14-.4,0-.78-.1-1.15-.31-.37-.21-.55-.53-.55-.96,0-.4.13-.71.4-.93s.58-.39.96-.5c.38-.11.77-.18,1.17-.2.41-.02.75-.04,1.02-.04h.89ZM362.89,109.64h3.31v-5.92c0-.97-.08-1.83-.24-2.58-.16-.74-.44-1.37-.85-1.88-.41-.51-.95-.9-1.63-1.16-.68-.26-1.55-.39-2.6-.39-.96,0-1.88.16-2.78.47-.89.31-1.68.78-2.35,1.4l1.92,1.96c.38-.43.82-.77,1.31-1.02.49-.25,1.03-.37,1.62-.37.62,0,1.16.19,1.62.56.46.38.68.88.68,1.52-.49,0-1.03,0-1.62.02-.58.02-1.17.06-1.75.14-.58.08-1.15.2-1.69.37-.54.17-1.03.4-1.45.71-.42.3-.76.69-1.01,1.15-.25.46-.37,1.03-.37,1.7,0,.59.11,1.11.34,1.56s.53.82.91,1.13c.38.3.83.53,1.33.68.5.15,1.03.23,1.57.23.73,0,1.43-.14,2.1-.41.66-.27,1.19-.72,1.59-1.34h.05v1.46ZM345.19,102.5c.02-.29.08-.56.2-.83.12-.26.29-.49.5-.69.22-.2.47-.36.78-.49.3-.13.65-.19,1.05-.19.66,0,1.19.22,1.61.65.42.43.62.95.6,1.56h-4.74ZM350.46,105.78c-.3.42-.66.75-1.07,1.02-.41.26-.91.39-1.5.39-.7,0-1.29-.2-1.77-.61-.48-.41-.79-.96-.94-1.64h8.34v-1.13c0-.93-.13-1.76-.38-2.52-.26-.75-.62-1.39-1.09-1.93-.47-.54-1.05-.95-1.72-1.23-.68-.29-1.43-.43-2.26-.43-.89,0-1.74.14-2.53.43-.79.29-1.48.7-2.06,1.23-.58.53-1.04,1.18-1.38,1.93-.34.75-.5,1.59-.5,2.52s.17,1.76.5,2.52c.34.75.79,1.39,1.38,1.93.58.53,1.27.95,2.06,1.23.79.29,1.63.43,2.53.43.94,0,1.85-.2,2.73-.6.88-.4,1.61-.97,2.18-1.7l-2.52-1.84ZM324.34,109.64h3.74v-7.33h7.26v7.33h3.74v-16.96h-3.74v6.32h-7.26v-6.32h-3.74v16.96ZM306.52,102.5c.02-.29.08-.56.2-.83.12-.26.29-.49.5-.69.22-.2.47-.36.78-.49s.66-.19,1.05-.19c.66,0,1.19.22,1.61.65s.61.95.6,1.56h-4.74ZM311.79,105.78c-.3.42-.66.75-1.07,1.02-.41.26-.91.39-1.5.39-.7,0-1.29-.2-1.77-.61-.48-.41-.79-.96-.93-1.64h8.34v-1.13c0-.93-.13-1.76-.38-2.52-.26-.75-.62-1.39-1.09-1.93-.47-.54-1.05-.95-1.72-1.23-.68-.29-1.43-.43-2.26-.43-.89,0-1.74.14-2.53.43-.79.29-1.48.7-2.06,1.23-.58.53-1.04,1.18-1.38,1.93-.34.75-.5,1.59-.5,2.52s.17,1.76.5,2.52c.34.75.79,1.39,1.38,1.93.58.53,1.27.95,2.06,1.23.79.29,1.63.43,2.53.43.94,0,1.85-.2,2.73-.6s1.61-.97,2.18-1.7l-2.52-1.84ZM301.1,98h-3.16v-3.45h-3.59v3.45h-2.3v2.87h2.3v5.53c0,.64.11,1.18.32,1.63s.51.81.9,1.09c.38.28.83.48,1.34.61.51.13,1.07.19,1.68.19.42,0,.84-.02,1.27-.07s.85-.14,1.25-.29v-2.99c-.16.14-.39.24-.71.27-.31.04-.56.06-.76.06-.38,0-.69-.05-.92-.16-.23-.1-.4-.25-.52-.44-.11-.19-.18-.42-.22-.68-.03-.26-.05-.55-.05-.87v-3.88h3.16v-2.87ZM287.26,104.54v.77c0,.37-.08.69-.23.96s-.36.49-.61.67c-.26.18-.55.31-.87.41-.33.1-.67.14-1.02.14-.4,0-.78-.1-1.15-.31-.37-.21-.55-.53-.55-.96,0-.4.13-.71.39-.93.26-.22.58-.39.96-.5.37-.11.77-.18,1.17-.2.41-.02.75-.04,1.02-.04h.89ZM287.26,109.64h3.31v-5.92c0-.97-.08-1.83-.24-2.58-.16-.74-.44-1.37-.85-1.88-.41-.51-.95-.9-1.63-1.16-.68-.26-1.54-.39-2.6-.39-.96,0-1.89.16-2.78.47-.89.31-1.68.78-2.35,1.4l1.92,1.96c.38-.43.82-.77,1.31-1.02.49-.25,1.03-.37,1.62-.37.62,0,1.16.19,1.62.56.46.38.68.88.68,1.52-.5,0-1.03,0-1.62.02-.58.02-1.17.06-1.75.14s-1.15.2-1.69.37c-.54.17-1.03.4-1.45.71s-.76.69-1.01,1.15c-.25.46-.37,1.03-.37,1.7,0,.59.11,1.11.34,1.56.22.45.53.82.91,1.13.38.3.83.53,1.33.68.5.15,1.03.23,1.57.23.73,0,1.43-.14,2.1-.41s1.19-.72,1.59-1.34h.05v1.46ZM277.77,98h-3.16v-3.45h-3.59v3.45h-2.3v2.87h2.3v5.53c0,.64.11,1.18.32,1.63s.52.81.9,1.09c.38.28.83.48,1.34.61.51.13,1.07.19,1.68.19.41,0,.84-.02,1.27-.07.43-.05.85-.14,1.25-.29v-2.99c-.16.14-.4.24-.71.27-.31.04-.56.06-.75.06-.38,0-.69-.05-.92-.16-.23-.1-.4-.25-.51-.44-.11-.19-.18-.42-.22-.68-.03-.26-.05-.55-.05-.87v-3.88h3.16v-2.87ZM267.61,94.02c-.72-.64-1.53-1.09-2.42-1.37-.89-.27-1.82-.41-2.78-.41-.83,0-1.64.12-2.42.35-.78.23-1.47.58-2.07,1.04-.6.46-1.08,1.04-1.44,1.72s-.54,1.49-.54,2.4.19,1.7.59,2.28c.39.57.88,1.04,1.47,1.39.59.35,1.23.63,1.92.84.69.21,1.32.42,1.92.62.59.21,1.08.46,1.47.75.39.3.59.7.59,1.21,0,.3-.08.57-.23.79s-.35.41-.6.55c-.25.14-.53.25-.84.32-.31.07-.62.11-.92.11-.62,0-1.23-.14-1.81-.42-.58-.28-1.07-.67-1.45-1.19l-2.66,2.92c.81.75,1.69,1.29,2.64,1.63.94.34,1.96.5,3.07.5.88,0,1.71-.11,2.5-.34.79-.22,1.49-.57,2.08-1.03s1.07-1.05,1.43-1.75c.35-.7.53-1.52.53-2.47,0-.99-.19-1.78-.57-2.37-.38-.59-.87-1.06-1.45-1.41-.58-.35-1.21-.62-1.88-.81s-1.3-.38-1.88-.57-1.07-.42-1.45-.69c-.38-.27-.57-.66-.57-1.17,0-.32.08-.59.24-.81.16-.22.37-.4.62-.54.26-.14.53-.24.81-.3.29-.06.57-.1.84-.1.46,0,.95.09,1.47.27.52.18.93.47,1.23.85l2.56-2.8ZM235.6,109.64h3.59v-5.8c0-.38.02-.75.07-1.1.05-.35.15-.67.3-.95.15-.28.37-.5.66-.67.29-.17.66-.25,1.13-.25s.82.1,1.07.29c.25.19.43.44.55.74.12.3.19.63.22.99.02.36.04.71.04,1.04v5.7h3.59v-6.42c0-.78-.06-1.51-.17-2.18-.11-.67-.32-1.25-.63-1.75-.31-.49-.75-.88-1.31-1.16-.56-.28-1.29-.42-2.2-.42-.43,0-.83.06-1.2.17-.37.11-.69.26-.98.43-.29.18-.54.37-.74.6-.21.22-.37.45-.48.67h-.05v-1.58h-3.45v11.64ZM221.49,109.64h3.59v-5.8c0-.38.02-.75.07-1.1.05-.35.15-.67.3-.95.15-.28.37-.5.66-.67.29-.17.66-.25,1.13-.25s.82.1,1.07.29c.25.19.43.44.55.74.12.3.19.63.22.99s.04.71.04,1.04v5.7h3.59v-6.42c0-.78-.06-1.51-.17-2.18-.11-.67-.32-1.25-.64-1.75-.31-.49-.75-.88-1.31-1.16-.56-.28-1.29-.42-2.2-.42-.43,0-.83.06-1.2.17-.37.11-.69.26-.98.43-.29.18-.54.37-.74.6-.21.22-.37.45-.48.67h-.05v-1.58h-3.45v11.64ZM210.62,102.5c.02-.29.08-.56.2-.83.12-.26.29-.49.5-.69.22-.2.47-.36.78-.49.3-.13.65-.19,1.05-.19.65,0,1.19.22,1.61.65.41.43.61.95.6,1.56h-4.74ZM215.89,105.78c-.3.42-.66.75-1.07,1.02-.41.26-.91.39-1.5.39-.7,0-1.29-.2-1.77-.61-.48-.41-.79-.96-.93-1.64h8.34v-1.13c0-.93-.13-1.76-.38-2.52-.26-.75-.62-1.39-1.09-1.93-.47-.54-1.05-.95-1.72-1.23-.68-.29-1.43-.43-2.26-.43-.89,0-1.74.14-2.53.43-.79.29-1.48.7-2.06,1.23-.58.53-1.04,1.18-1.38,1.93-.34.75-.5,1.59-.5,2.52s.17,1.76.5,2.52c.34.75.79,1.39,1.38,1.93.58.53,1.27.95,2.06,1.23.79.29,1.63.43,2.53.43.94,0,1.85-.2,2.73-.6.88-.4,1.61-.97,2.18-1.7l-2.52-1.84ZM197.08,95.84h1.92c.35,0,.72.02,1.1.06.38.04.73.13,1.04.28s.57.35.77.61c.2.26.3.61.3,1.04,0,.4-.08.73-.23.99-.15.26-.35.47-.6.62-.25.15-.53.26-.84.32s-.64.1-.97.1h-2.49v-4.02ZM193.34,109.64h3.74v-6.61h2.73c.89,0,1.72-.08,2.49-.25.77-.17,1.43-.45,1.99-.85s1-.93,1.32-1.61c.32-.67.48-1.5.48-2.49s-.17-1.84-.51-2.5c-.34-.66-.81-1.19-1.39-1.58-.58-.39-1.27-.67-2.05-.83-.78-.16-1.61-.24-2.49-.24h-6.3v16.96ZM178.2,109.71l-.7,1.8c-.11.29-.22.54-.33.77-.11.22-.25.42-.42.59-.17.17-.37.29-.59.38-.23.09-.51.13-.84.13-.43,0-.86-.09-1.29-.26l-.26,1.96c.3.13.62.21.94.25.33.04.65.06.97.06.59,0,1.09-.08,1.49-.24.41-.16.75-.38,1.04-.67.29-.29.53-.64.74-1.04.21-.41.41-.86.6-1.35l5.39-13.8h-2.3l-3.22,8.86h-.05l-3.36-8.86h-2.49l4.7,11.43ZM164.67,107.62c-.46-.2-.85-.47-1.17-.81-.32-.34-.57-.76-.74-1.25-.18-.49-.26-1.02-.26-1.59s.09-1.11.26-1.59c.18-.49.42-.9.74-1.25.32-.34.71-.62,1.17-.81.46-.2.98-.3,1.56-.3s1.09.1,1.56.3c.46.2.85.47,1.17.81.32.34.57.76.74,1.25.18.49.26,1.02.26,1.59s-.09,1.11-.26,1.59c-.18.49-.42.9-.74,1.25-.32.34-.71.61-1.17.81-.46.2-.98.3-1.56.3s-1.09-.1-1.56-.3M160.33,109.64h2.16v-1.63h.05c.42.61.99,1.08,1.71,1.41.73.34,1.47.5,2.24.5.88,0,1.67-.15,2.38-.46.71-.3,1.32-.73,1.82-1.27.5-.54.89-1.17,1.16-1.89.27-.72.41-1.5.41-2.35s-.14-1.63-.41-2.36c-.27-.73-.66-1.36-1.16-1.89-.5-.54-1.11-.96-1.82-1.26-.71-.3-1.51-.46-2.38-.46-.81,0-1.58.17-2.3.51-.72.34-1.27.81-1.65,1.4h-.05v-8.39h-2.16v18.11ZM143.2,107.62c-.46-.2-.85-.47-1.17-.81-.32-.34-.57-.76-.74-1.25-.18-.49-.26-1.02-.26-1.59s.09-1.11.26-1.59c.18-.49.42-.9.74-1.25.32-.34.71-.62,1.17-.81.46-.2.98-.3,1.56-.3s1.09.1,1.56.3c.46.2.85.47,1.17.81.32.34.57.76.74,1.25.18.49.26,1.02.26,1.59s-.09,1.11-.26,1.59c-.18.49-.42.9-.74,1.25-.32.34-.71.61-1.17.81-.46.2-.98.3-1.56.3s-1.09-.1-1.56-.3M150.65,91.53h-2.16v8.39h-.05c-.38-.59-.93-1.06-1.65-1.4-.72-.34-1.49-.51-2.3-.51-.88,0-1.67.15-2.38.46-.71.3-1.32.72-1.82,1.26-.5.53-.89,1.17-1.16,1.89-.27.73-.41,1.51-.41,2.36s.14,1.63.41,2.35c.27.72.66,1.35,1.16,1.89.5.54,1.11.97,1.82,1.27.71.3,1.51.46,2.38.46.77,0,1.51-.17,2.24-.5.73-.34,1.3-.81,1.71-1.41h.05v1.63h2.16v-18.11ZM127.7,103.03c0-.38.08-.77.25-1.16.17-.39.4-.75.71-1.07.3-.32.67-.58,1.11-.78.44-.2.92-.3,1.45-.3s1.02.08,1.43.25c.41.17.75.4,1.02.7.27.29.47.64.61,1.04.14.4.21.84.23,1.32h-6.8ZM136.8,104.75v-.77c0-.73-.1-1.46-.3-2.17-.2-.71-.52-1.35-.97-1.92-.45-.57-1.02-1.03-1.71-1.38s-1.55-.53-2.55-.53c-.85,0-1.63.15-2.35.46-.72.3-1.34.72-1.86,1.26-.52.53-.93,1.17-1.22,1.89-.3.73-.44,1.51-.44,2.36s.14,1.63.41,2.36c.27.73.66,1.36,1.16,1.89.5.53,1.12.95,1.84,1.26.73.3,1.54.46,2.43.46,2.16,0,3.83-.77,5.03-2.32l-1.63-1.25c-.42.51-.87.92-1.37,1.23-.49.31-1.08.47-1.75.47-.49,0-.97-.08-1.44-.24-.46-.16-.87-.38-1.22-.67s-.63-.63-.85-1.04c-.22-.41-.32-.86-.32-1.35h9.1ZM117.76,109.64h2.16v-5.7c0-1.25.28-2.16.84-2.76.56-.59,1.37-.89,2.42-.89.18,0,.35.02.53.05.18.03.35.07.53.12l.1-2.32c-.29-.1-.61-.14-.96-.14s-.7.05-1.05.16c-.35.1-.67.24-.97.42-.3.18-.56.39-.8.64-.24.25-.43.52-.57.83h-.05v-1.75h-2.16v11.36ZM106.18,103.03c0-.38.08-.77.25-1.16.17-.39.4-.75.71-1.07.3-.32.67-.58,1.11-.78.44-.2.92-.3,1.45-.3s1.02.08,1.43.25c.41.17.75.4,1.02.7.27.29.47.64.61,1.04.14.4.21.84.23,1.32h-6.8ZM115.29,104.75v-.77c0-.73-.1-1.46-.3-2.17-.2-.71-.52-1.35-.97-1.92-.45-.57-1.02-1.03-1.71-1.38s-1.55-.53-2.55-.53c-.85,0-1.63.15-2.35.46-.72.3-1.34.72-1.86,1.26-.52.53-.93,1.17-1.22,1.89-.3.73-.44,1.51-.44,2.36s.14,1.63.41,2.36c.27.73.66,1.36,1.16,1.89.5.53,1.12.95,1.84,1.26.73.3,1.54.46,2.43.46,2.16,0,3.83-.77,5.03-2.32l-1.63-1.25c-.42.51-.87.92-1.37,1.23-.49.31-1.08.47-1.75.47-.49,0-.97-.08-1.44-.24-.46-.16-.87-.38-1.22-.67-.35-.29-.63-.63-.85-1.04-.22-.41-.32-.86-.32-1.35h9.1ZM88.86,109.64h2.3l2.74-8.48h.05l3.01,8.48h2.18l3.67-11.36h-2.3l-2.42,8.48h-.05l-2.87-8.48h-2.3l-2.72,8.48h-.05l-2.55-8.48h-2.42l3.74,11.36ZM72.77,106.3c.31.73.74,1.36,1.28,1.89.54.53,1.18.96,1.92,1.27.73.31,1.52.47,2.37.47s1.64-.16,2.37-.47c.73-.31,1.37-.73,1.92-1.27.54-.54.97-1.17,1.28-1.89.31-.73.47-1.51.47-2.34s-.16-1.61-.47-2.32c-.31-.72-.74-1.35-1.28-1.89-.54-.54-1.18-.97-1.92-1.28-.74-.31-1.53-.47-2.37-.47s-1.64.16-2.37.47c-.74.31-1.37.74-1.92,1.28-.54.54-.97,1.17-1.28,1.89-.31.72-.47,1.49-.47,2.32s.16,1.61.47,2.34M74.87,102.37c.17-.49.42-.9.74-1.25.32-.34.71-.62,1.17-.81.46-.2.98-.3,1.56-.3s1.09.1,1.56.3c.46.2.85.47,1.17.81.32.34.57.76.74,1.25.17.49.26,1.02.26,1.59s-.09,1.11-.26,1.59c-.18.49-.42.9-.74,1.25-.32.34-.71.61-1.17.81-.46.2-.98.3-1.56.3s-1.09-.1-1.56-.3c-.46-.2-.86-.47-1.17-.81-.32-.34-.57-.76-.74-1.25-.18-.49-.26-1.02-.26-1.59s.09-1.11.26-1.59M62.58,94.69h3.02c.45,0,.89.04,1.33.11.44.07.83.2,1.17.4.34.19.62.47.83.83.21.36.31.83.31,1.4s-.1,1.04-.31,1.4c-.21.36-.48.64-.83.83-.34.19-.73.32-1.17.39-.44.07-.88.11-1.33.11h-3.02v-5.46ZM60.28,109.64h2.3v-7.47h3.67c1.09,0,1.98-.15,2.68-.44.7-.29,1.26-.67,1.67-1.12.41-.46.69-.97.85-1.53.16-.57.24-1.11.24-1.64s-.08-1.07-.24-1.64c-.16-.57-.44-1.08-.85-1.53-.41-.46-.96-.83-1.67-1.13-.7-.29-1.6-.44-2.68-.44h-5.97v16.96Z"/>
    <circle class="cls-2" cx="331" cy="37.53" r="4.05"/>
  </g>
  <path class="cls-2" d="M399.36,33.7c2.22,0,4.03,1.81,4.03,4.03s-1.81,4.03-4.03,4.03-4.03-1.81-4.03-4.03,1.81-4.03,4.03-4.03ZM396.5,37.73c0,1.8,1.25,3.07,2.87,3.07s2.87-1.27,2.87-3.07-1.27-3.07-2.87-3.07-2.87,1.28-2.87,3.07ZM401.39,38.38c-.17,1.09-.99,1.7-1.92,1.7-1.29,0-2.19-1.04-2.19-2.38s.85-2.38,2.19-2.38c.97,0,1.76.58,1.92,1.67h-.89c-.1-.52-.54-.78-1.03-.78-.77,0-1.18.6-1.18,1.47s.47,1.49,1.18,1.49c.56,0,.97-.28,1.03-.8h.89Z"/>
</svg>